# xmcd
#
# Track frame offsets:
#	182
#	12892
#	36420
#	57380
#	82265
#	97350
#	116027
#	126465
#	154995
#	170732
#	192872
#	208802
#
# Disc length: 2998
#
# Revision: 4
# Processed by: cddbd v1.5.1PL0 Copyright (c) Steve Scherf et al.
# Submitted via: ExactAudioCopy v0.95a3
# Normalized: r3:DSETVAR1
#
DISCID=bb0bb40c
DTITLE=Various Artist - Down Home Blues [CD1]
DYEAR=2002
DGENRE=Blues
TTITLE0=Johnnie Taylor - Who's Makin Love
TTITLE1=Z.Z. Hill - Down Home Blues
TTITLE2=Denise LaSalle - Your Husbands Cheatin' On Us
TTITLE3=Latimore - Let's Straighten It Out
TTITLE4=Bobby Bland - Two Steps From The Blues
TTITLE5=Bobby Bland - Members Only
TTITLE6=Little Richard - Send Me Some Lovin'
TTITLE7=Little Milton - Walkin' The Backstreets And Cryin'
TTITLE8=Z.Z. Hill - Bump And Grind
TTITLE9=Ko Ko Taylor - Wang Dang Doodle
TTITLE10=Luther Ingram - (If Lovin You Is Wrong) I Don't Want To Be Right
TTITLE11=McKinley Mitchell - End Of The Rainbow
EXTD=
EXTT0=
EXTT1=
EXTT2=
EXTT3=
EXTT4=
EXTT5=
EXTT6=
EXTT7=
EXTT8=
EXTT9=
EXTT10=
EXTT11=
PLAYORDER=
